<!DOCTYPE svg PUBLIC "-//W3C//DTD SVG 1.1//EN" "http://www.w3.org/Graphics/SVG/1.1/DTD/svg11.dtd">
<!-- Uploaded to: SVG Repo, www.svgrepo.com, Transformed by: SVG Repo Mixer Tools -->
<svg fill="#c29216" height="800px" width="800px" version="1.1" id="Layer_1" xmlns="http://www.w3.org/2000/svg" xmlns:xlink="http://www.w3.org/1999/xlink" viewBox="0 0 512.001 512.001" xml:space="preserve">
<g id="SVGRepo_bgCarrier" stroke-width="0"/>
<g id="SVGRepo_tracerCarrier" stroke-linecap="round" stroke-linejoin="round"/>
<g id="SVGRepo_iconCarrier"> <g> <g> <path d="M496.32,114.722h-54.172c-8.8,0-16.191,7.141-16.191,15.941v15.926h-4.948c-29.405,0-54.189,20.183-61.272,47.801H86.042 v-16.354c0-8.801-7.391-15.513-16.191-15.513H15.68c-8.8,0-15.68,6.712-15.68,15.513v203.302c0,8.799,6.88,15.94,15.68,15.94 h54.172c8.799,0,16.19-7.141,16.19-15.941v-10.615h339.917v10.615c0,8.8,7.391,15.941,16.191,15.941h54.172 c8.8,0,15.68-7.141,15.68-15.941V130.664C512,121.864,505.12,114.722,496.32,114.722z M54.174,261.314v93.72v10.377H31.867 V194.391h22.307V261.314z M425.959,338.855H86.042v-61.61h339.917V338.855z M425.959,245.378H86.042v-19.12h287.596h52.321 V245.378z M425.959,194.391h-32.043c5.474-9.56,15.57-15.934,27.095-15.934h4.948V194.391z M480.133,365.411h-22.307v-10.378 v-93.72V146.59h22.307V365.411z"/> </g> </g> </g>
</svg>